<svg xmlns="http://www.w3.org/2000/svg" viewBox="0 0 512 512">
  <defs>
    <linearGradient id="grad1" x1="0%" y1="0%" x2="100%" y2="100%">
      <stop offset="0%" style="stop-color:#6366f1;stop-opacity:1" />
      <stop offset="100%" style="stop-color:#ec4899;stop-opacity:1" />
    </linearGradient>
  </defs>
  <circle cx="256" cy="256" r="256" fill="url(#grad1)" />
  <circle cx="256" cy="256" r="180" fill="rgba(255,255,255,0.2)" />
  <path d="M256 100 C169.8 100 100 169.8 100 256 C100 342.2 169.8 412 256 412 C342.2 412 412 342.2 412 256 C412 169.8 342.2 100 256 100 Z M256 372 C191.9 372 140 320.1 140 256 C140 191.9 191.9 140 256 140 C320.1 140 372 191.9 372 256 C372 320.1 320.1 372 256 372 Z" fill="white" />
  <path d="M256 180 V256 L310 310" stroke="white" stroke-width="30" stroke-linecap="round" stroke-linejoin="round" fill="none" />
  <circle cx="256" cy="256" r="20" fill="white" />
</svg>
